<svg width="481" height="305" viewBox="0 0 481 305" fill="none" xmlns="http://www.w3.org/2000/svg">
<g opacity="0.1">
<circle cx="152.303" cy="152.634" r="122" transform="rotate(-180 152.303 152.634)" stroke="#FCF8FB" stroke-width="60"/>
<circle cx="108.303" cy="106.634" r="50.5" transform="rotate(-180 108.303 106.634)" stroke="#FCF8FB" stroke-width="25"/>
<circle r="3.94068" transform="matrix(-1 0 0 1 434.244 75.5742)" fill="#FCF8FB"/>
<circle r="3.94068" transform="matrix(-1 0 0 1 434.244 89.7607)" fill="#FCF8FB"/>
<circle r="3.94068" transform="matrix(-1 0 0 1 434.244 103.947)" fill="#FCF8FB"/>
<circle r="3.94068" transform="matrix(-1 0 0 1 434.244 118.134)" fill="#FCF8FB"/>
<circle r="3.94068" transform="matrix(-1 0 0 1 434.244 132.32)" fill="#FCF8FB"/>
<circle r="3.94068" transform="matrix(-1 0 0 1 434.244 146.506)" fill="#FCF8FB"/>
<circle r="3.94068" transform="matrix(-1 0 0 1 434.244 160.693)" fill="#FCF8FB"/>
<circle r="3.94068" transform="matrix(-1 0 0 1 448.43 75.5742)" fill="#FCF8FB"/>
<circle r="3.94068" transform="matrix(-1 0 0 1 448.43 89.7607)" fill="#FCF8FB"/>
<circle r="3.94068" transform="matrix(-1 0 0 1 448.43 103.947)" fill="#FCF8FB"/>
<circle r="3.94068" transform="matrix(-1 0 0 1 448.43 118.134)" fill="#FCF8FB"/>
<circle r="3.94068" transform="matrix(-1 0 0 1 448.43 132.32)" fill="#FCF8FB"/>
<circle r="3.94068" transform="matrix(-1 0 0 1 448.43 146.506)" fill="#FCF8FB"/>
<circle r="3.94068" transform="matrix(-1 0 0 1 448.43 160.693)" fill="#FCF8FB"/>
<circle r="3.94068" transform="matrix(-1 0 0 1 462.617 75.5742)" fill="#FCF8FB"/>
<circle r="3.94068" transform="matrix(-1 0 0 1 462.617 89.7607)" fill="#FCF8FB"/>
<circle r="3.94068" transform="matrix(-1 0 0 1 462.617 103.947)" fill="#FCF8FB"/>
<circle r="3.94068" transform="matrix(-1 0 0 1 462.617 118.134)" fill="#FCF8FB"/>
<circle r="3.94068" transform="matrix(-1 0 0 1 462.617 132.32)" fill="#FCF8FB"/>
<circle r="3.94068" transform="matrix(-1 0 0 1 462.617 146.506)" fill="#FCF8FB"/>
<circle r="3.94068" transform="matrix(-1 0 0 1 462.617 160.693)" fill="#FCF8FB"/>
<circle r="3.94068" transform="matrix(-1 0 0 1 476.803 75.5742)" fill="#FCF8FB"/>
<circle r="3.94068" transform="matrix(-1 0 0 1 476.803 89.7607)" fill="#FCF8FB"/>
<circle r="3.94068" transform="matrix(-1 0 0 1 476.803 103.947)" fill="#FCF8FB"/>
<circle r="3.94068" transform="matrix(-1 0 0 1 476.803 118.134)" fill="#FCF8FB"/>
<circle r="3.94068" transform="matrix(-1 0 0 1 476.803 132.32)" fill="#FCF8FB"/>
<circle r="3.94068" transform="matrix(-1 0 0 1 476.803 146.506)" fill="#FCF8FB"/>
<circle r="3.94068" transform="matrix(-1 0 0 1 476.803 160.693)" fill="#FCF8FB"/>
</g>
</svg>
