<svg width="203" height="83" viewBox="0 0 203 83" fill="none" xmlns="http://www.w3.org/2000/svg">
<path d="M5.59302 78.5823H6.58366V81.5462C6.22593 81.8575 5.80972 82.0963 5.33504 82.2628C4.86035 82.4293 4.36503 82.5125 3.84907 82.5125C3.11984 82.5125 2.46285 82.346 1.8781 82.0131C1.29334 81.6729 0.832417 81.2097 0.495323 80.6234C0.165108 80.0299 0 79.364 0 78.6258C0 77.8875 0.165108 77.2216 0.495323 76.6281C0.832417 76.0346 1.29334 75.5714 1.8781 75.2384C2.46973 74.9055 3.1336 74.739 3.86971 74.739C4.44758 74.739 4.97043 74.8403 5.43823 75.043C5.91291 75.2384 6.31536 75.5279 6.64558 75.9115L6.00579 76.5847C5.42791 75.9984 4.72964 75.7053 3.91098 75.7053C3.36063 75.7053 2.8653 75.8319 2.42502 76.0853C1.99161 76.3313 1.65108 76.6788 1.40341 77.1275C1.15575 77.569 1.03192 78.0684 1.03192 78.6258C1.03192 79.1758 1.15575 79.6752 1.40341 80.124C1.65108 80.5655 1.99161 80.9129 2.42502 81.1662C2.8653 81.4196 3.35719 81.5462 3.90067 81.5462C4.54734 81.5462 5.11145 81.3834 5.59302 81.0577V78.5823Z" fill="#F1EEF0"/>
<path d="M21.283 81.4811V82.4256H16.0408V74.8259H21.1385V75.7704H17.0727V78.1046H20.6948V79.0275H17.0727V81.4811H21.283Z" fill="#F1EEF0"/>
<path d="M31.8697 75.7704H29.3931V74.8259H35.3679V75.7704H32.8913V82.4256H31.8697V75.7704Z" fill="#F1EEF0"/>
<path d="M55.6603 75.7704H53.1837V74.8259H59.1586V75.7704H56.6819V82.4256H55.6603V75.7704Z" fill="#F1EEF0"/>
<path d="M73.9761 74.8259V82.4256H72.9441V79.0383H68.7958V82.4256H67.7639V74.8259H68.7958V78.0938H72.9441V74.8259H73.9761Z" fill="#F1EEF0"/>
<path d="M83.6196 74.8259H84.6515V82.4256H83.6196V74.8259Z" fill="#F1EEF0"/>
<path d="M100.508 74.8259V82.4256H99.6616L95.3275 76.7584V82.4256H94.2956V74.8259H95.1418L99.4758 80.4931V74.8259H100.508Z" fill="#F1EEF0"/>
<path d="M115.156 78.5823H116.147V81.5462C115.789 81.8575 115.373 82.0963 114.898 82.2628C114.423 82.4293 113.928 82.5125 113.412 82.5125C112.683 82.5125 112.026 82.346 111.441 82.0131C110.856 81.6729 110.396 81.2097 110.058 80.6234C109.728 80.0299 109.563 79.364 109.563 78.6258C109.563 77.8875 109.728 77.2216 110.058 76.6281C110.396 76.0346 110.856 75.5714 111.441 75.2384C112.033 74.9055 112.697 74.739 113.433 74.739C114.011 74.739 114.534 74.8403 115.001 75.043C115.476 75.2384 115.878 75.5279 116.209 75.9115L115.569 76.5847C114.991 75.9984 114.293 75.7053 113.474 75.7053C112.924 75.7053 112.428 75.8319 111.988 76.0853C111.555 76.3313 111.214 76.6788 110.967 77.1275C110.719 77.569 110.595 78.0684 110.595 78.6258C110.595 79.1758 110.719 79.6752 110.967 80.124C111.214 80.5655 111.555 80.9129 111.988 81.1662C112.428 81.4196 112.92 81.5462 113.464 81.5462C114.11 81.5462 114.675 81.3834 115.156 81.0577V78.5823Z" fill="#F1EEF0"/>
<path d="M127.709 82.5125C127.166 82.5125 126.639 82.4256 126.13 82.2519C125.628 82.071 125.232 81.8394 124.944 81.5571L125.325 80.7103C125.6 80.9708 125.951 81.1843 126.378 81.3508C126.811 81.51 127.255 81.5897 127.709 81.5897C128.308 81.5897 128.755 81.4847 129.051 81.2748C129.346 81.0577 129.494 80.7718 129.494 80.4171C129.494 80.1566 129.412 79.9467 129.247 79.7874C129.088 79.621 128.889 79.4943 128.648 79.4074C128.414 79.3206 128.081 79.2229 127.647 79.1143C127.104 78.9768 126.663 78.8393 126.326 78.7018C125.996 78.5642 125.711 78.3543 125.47 78.0721C125.236 77.7825 125.119 77.3953 125.119 76.9104C125.119 76.5051 125.219 76.1395 125.418 75.8138C125.625 75.4881 125.934 75.2276 126.347 75.0321C126.76 74.8367 127.272 74.739 127.884 74.739C128.311 74.739 128.731 74.7969 129.143 74.9127C129.556 75.0285 129.91 75.195 130.206 75.4121L129.866 76.2807C129.563 76.078 129.24 75.926 128.896 75.8247C128.552 75.7161 128.215 75.6618 127.884 75.6618C127.3 75.6618 126.859 75.774 126.564 75.9984C126.275 76.2228 126.13 76.5123 126.13 76.8669C126.13 77.1275 126.213 77.341 126.378 77.5075C126.543 77.6667 126.746 77.7934 126.987 77.8875C127.234 77.9743 127.568 78.0684 127.988 78.1698C128.531 78.3073 128.968 78.4448 129.298 78.5823C129.628 78.7198 129.91 78.9297 130.144 79.212C130.385 79.4943 130.506 79.8743 130.506 80.352C130.506 80.7501 130.402 81.1156 130.196 81.4485C129.99 81.7742 129.677 82.0348 129.257 82.2302C128.837 82.4184 128.321 82.5125 127.709 82.5125Z" fill="#F1EEF0"/>
<path d="M149.747 74.8259H152.791C153.555 74.8259 154.233 74.9851 154.824 75.3036C155.416 75.622 155.873 76.0708 156.197 76.6498C156.527 77.2216 156.692 77.8803 156.692 78.6258C156.692 79.3713 156.527 80.0335 156.197 80.6125C155.873 81.1843 155.416 81.6295 154.824 81.9479C154.233 82.2664 153.555 82.4256 152.791 82.4256H149.747V74.8259ZM152.73 81.4811C153.314 81.4811 153.827 81.3617 154.267 81.1228C154.714 80.884 155.058 80.551 155.299 80.124C155.54 79.6897 155.66 79.1903 155.66 78.6258C155.66 78.0612 155.54 77.5654 155.299 77.1384C155.058 76.7041 154.714 76.3675 154.267 76.1287C153.827 75.8898 153.314 75.7704 152.73 75.7704H150.779V81.4811H152.73Z" fill="#F1EEF0"/>
<path d="M169.015 82.5125C168.286 82.5125 167.629 82.346 167.044 82.0131C166.459 81.6729 165.998 81.2061 165.661 80.6125C165.331 80.019 165.166 79.3568 165.166 78.6258C165.166 77.8947 165.331 77.2325 165.661 76.639C165.998 76.0455 166.459 75.5822 167.044 75.2493C167.629 74.9091 168.286 74.739 169.015 74.739C169.737 74.739 170.391 74.9091 170.976 75.2493C171.56 75.5822 172.018 76.0455 172.348 76.639C172.678 77.2252 172.843 77.8875 172.843 78.6258C172.843 79.364 172.678 80.0299 172.348 80.6234C172.018 81.2097 171.56 81.6729 170.976 82.0131C170.391 82.346 169.737 82.5125 169.015 82.5125ZM169.015 81.5462C169.545 81.5462 170.019 81.4196 170.439 81.1662C170.866 80.9129 171.199 80.5655 171.44 80.124C171.688 79.6752 171.812 79.1758 171.812 78.6258C171.812 78.0757 171.688 77.5799 171.44 77.1384C171.199 76.6896 170.866 76.3386 170.439 76.0853C170.019 75.8319 169.545 75.7053 169.015 75.7053C168.485 75.7053 168.004 75.8319 167.57 76.0853C167.144 76.3386 166.807 76.6896 166.559 77.1384C166.318 77.5799 166.198 78.0757 166.198 78.6258C166.198 79.1758 166.318 79.6752 166.559 80.124C166.807 80.5655 167.144 80.9129 167.57 81.1662C168.004 81.4196 168.485 81.5462 169.015 81.5462Z" fill="#F1EEF0"/>
<path d="M188.114 74.8259V82.4256H187.268L182.934 76.7584V82.4256H181.902V74.8259H182.748L187.082 80.4931V74.8259H188.114Z" fill="#F1EEF0"/>
<path d="M203 81.4811V82.4256H197.758V74.8259H202.856V75.7704H198.79V78.1046H202.412V79.0275H198.79V81.4811H203Z" fill="#F1EEF0"/>
<path fill-rule="evenodd" clip-rule="evenodd" d="M1.70514 60.9027C0.717955 60.9027 0 60.1263 0 59.2636V2.15162C0 1.2889 0.717955 0.512451 1.70514 0.512451H28.5387C39.3081 0.512451 48.103 8.88082 48.103 19.1472C48.103 27.0842 42.6286 33.4683 34.8208 36.4878L47.1158 58.4009C47.7441 59.5224 47.1158 60.9027 45.5902 60.9027H33.6542C32.9362 60.9027 32.3977 60.4714 32.2183 60.1263L20.2822 37.2643H14.0899V59.2636C14.0899 60.1263 13.2822 60.9027 12.3847 60.9027H1.70514ZM14.0899 12.8493V26.3077H27.3721C31.0516 26.3077 34.1926 23.0294 34.1926 19.406C34.1926 15.7826 31.0516 12.8493 27.3721 12.8493H14.0899Z" fill="#FCF8FB"/>
<path fill-rule="evenodd" clip-rule="evenodd" d="M70.0715 61.7655C59.3919 61.7655 51.3149 53.5696 51.3149 43.6484C51.3149 33.8997 59.3021 25.5313 69.892 25.5313C79.0459 25.5313 86.9434 32.2605 86.9434 41.7504C86.9434 42.3543 86.8537 43.4758 86.7639 44.0797C86.6742 44.9425 85.8665 45.5464 85.0588 45.5464H63.5201C63.7894 47.8757 65.7637 51.2403 70.4305 51.2403C72.6741 51.2403 75.2767 50.205 76.7126 49.1698C77.5203 48.5659 78.4177 48.5659 78.9562 49.1698L83.4434 54.3461C83.9819 55.0363 84.1614 56.0715 83.3537 56.848C80.2126 59.8675 75.7254 61.7655 70.0715 61.7655ZM69.533 34.7624C67.1099 34.7624 65.0458 36.5741 64.6868 38.8172H74.2895C74.11 36.5741 71.8664 34.7624 69.533 34.7624Z" fill="#FCF8FB"/>
<path d="M93.4457 59.2636C93.4457 60.1263 94.1637 60.9027 95.1508 60.9027H104.574C105.471 60.9027 106.279 60.1263 106.279 59.2636V42.6994C106.279 39.1622 108.971 36.6604 112.561 36.6604C116.6 36.6604 118.215 39.6799 118.215 43.1307V59.2636C118.215 60.1263 118.933 60.9027 119.92 60.9027H128.536C129.523 60.9027 130.241 60.1263 130.241 59.2636V42.5268C130.241 39.1622 133.113 36.6604 136.254 36.6604C140.382 36.6604 142.267 39.6799 142.267 43.1307V59.2636C142.267 60.1263 142.985 60.9027 143.972 60.9027H153.485C154.472 60.9027 155.19 60.1263 155.19 59.2636V43.6484C155.19 33.8134 149.715 25.5313 138.587 25.5313C132.485 25.5313 128.267 28.8096 126.202 30.7939C122.972 27.343 119.472 25.5313 114.446 25.5313C108.702 25.5313 104.574 28.6371 102.33 30.8801L100.805 27.343C100.536 26.8254 99.9073 26.394 99.2791 26.394H95.1508C94.1637 26.394 93.4457 27.0842 93.4457 28.0332V59.2636Z" fill="#FCF8FB"/>
<path d="M185.782 36.4097L177.857 44.0958L174.434 40.7903L170.837 44.2645L177.842 51.0306L189.381 39.8857L185.782 36.4097Z" fill="#FCF8FB"/>
<path fill-rule="evenodd" clip-rule="evenodd" d="M180.19 25.5478C169.722 25.5478 161.326 33.9151 161.326 44.124C161.326 54.3315 169.702 62.7003 180.19 62.7003C190.658 62.7003 199.054 54.3329 199.054 44.124C199.054 33.9151 190.658 25.5478 180.19 25.5478ZM180.19 55.133C174.106 55.133 169.096 50.261 169.096 44.124C169.096 37.9871 174.106 33.1151 180.19 33.1151C186.274 33.1151 191.285 37.9871 191.285 44.124C191.285 50.261 186.274 55.133 180.19 55.133Z" fill="#FCF8FB"/>
<path d="M198.882 33.2356L203 28.4121L192.354 19.59L188.236 24.4135L198.882 33.2356Z" fill="#FCF8FB"/>
<path fill-rule="evenodd" clip-rule="evenodd" d="M161.564 33.2169L172.188 24.4168L168.097 19.588L157.445 28.3923L161.564 33.2169Z" fill="#FCF8FB"/>
</svg>
