<svg width="38" height="38" viewBox="0 0 38 38" fill="none" xmlns="http://www.w3.org/2000/svg">
<g clip-path="url(#clip0)">
<rect width="38" height="38" rx="19" fill="#9E51BF"/>
<path opacity="0.7" fill-rule="evenodd" clip-rule="evenodd" d="M37.4016 2.5301C41.8605 3.73791 48.5599 2.20612 50.1159 6.87234C51.651 11.4754 45.8782 16.7913 43.8942 21.9999C42.089 26.7393 42.3413 32.0856 39.0328 35.9694C35.5349 40.0755 30.5497 42.825 25.9498 43.0643C21.5459 43.2934 18.7254 39.6197 15.3769 37.2001C12.2212 34.9197 8.27603 33.4061 7.00541 29.375C5.71369 25.2769 6.51028 20.144 8.58411 15.6492C10.503 11.4904 14.2629 8.7397 17.786 6.00929C20.9271 3.57505 24.2108 1.43399 27.7328 0.8093C31.2573 0.184157 34.1974 1.66218 37.4016 2.5301Z" fill="#E787AB"/>
<path opacity="0.7" fill-rule="evenodd" clip-rule="evenodd" d="M26.285 28.6063C28.7515 24.7002 34.7212 21.2959 32.7103 16.8069C30.7265 12.3786 22.8791 12.3695 17.8942 9.87604C13.3584 7.60721 9.9273 3.49943 4.86335 2.87773C-0.490522 2.22043 -6.02174 3.56835 -9.57106 6.50413C-12.9691 9.31478 -12.5608 13.9283 -13.3896 17.9755C-14.1708 21.7898 -16.0521 25.5734 -14.2606 29.4016C-12.4393 33.2934 -8.38009 36.5343 -3.81201 38.4413C0.414681 40.2058 5.04443 39.6877 9.48616 39.3148C13.4461 38.9824 17.3128 38.3375 20.329 36.4148C23.3474 34.4907 24.5126 31.4131 26.285 28.6063Z" fill="#CE5FBC"/>
<path opacity="0.7" fill-rule="evenodd" clip-rule="evenodd" d="M11.684 42.5884C8.29065 39.4538 1.64315 37.7106 2.42377 32.8541C3.19382 28.0633 10.7715 26.0234 14.9411 22.3247C18.7352 18.9592 20.9862 14.1034 25.7167 12.1922C30.718 10.1716 36.4096 10.042 40.5979 11.9591C44.6076 13.7945 45.4072 18.3566 47.2553 22.0513C48.9971 25.5335 51.7935 28.7013 51.0539 32.8627C50.3019 37.0932 47.2199 41.2744 43.301 44.2986C39.675 47.0969 35.0689 47.7948 30.682 48.5842C26.771 49.288 22.8692 49.6659 19.4581 48.5893C16.0445 47.512 14.1225 44.8409 11.684 42.5884Z" fill="#9E51BF"/>
<path opacity="0.7" fill-rule="evenodd" clip-rule="evenodd" d="M1.65842 30.1979C2.82053 25.7304 1.22 19.0486 5.87038 17.4511C10.4579 15.8751 15.833 21.5965 21.0621 23.5322C25.8202 25.2935 31.164 24.9928 35.0818 28.2643C39.2239 31.7231 42.0246 36.6806 42.3111 41.2758C42.5854 45.6752 38.9405 48.5275 36.5552 51.8961C34.3071 55.0708 32.834 59.0275 28.8158 60.334C24.7308 61.6622 19.5896 60.9126 15.0735 58.8806C10.8948 57.0005 8.1055 53.2676 5.33888 49.7711C2.87237 46.6539 0.697573 43.3914 0.0367452 39.877C-0.624562 36.3601 0.823346 33.4081 1.65842 30.1979Z" fill="#CE5FBC"/>
</g>
<defs>
<clipPath id="clip0">
<rect width="38" height="38" rx="19" fill="white"/>
</clipPath>
</defs>
</svg>
